<svg aria-hidden="true" style="position: absolute; width: 0; height: 0; overflow: hidden;" version="1.1" xmlns="http://www.w3.org/2000/svg" xmlns:xlink="http://www.w3.org/1999/xlink">
<defs>
<symbol id="icon-bulb" viewBox="0 0 32 32">
<path d="M22.419 17.947c1.027-1.337 1.645-3.033 1.645-4.874 0-0.009 0-0.018-0-0.027v0.001c0-2.19-0.859-4.242-2.418-5.78-1.456-1.444-3.461-2.337-5.675-2.337-0.049 0-0.099 0-0.148 0.001l0.007-0c-2.122 0.030-4.122 0.882-5.63 2.398s-2.35 3.52-2.369 5.643c-0.016 1.82 0.556 3.545 1.655 4.988 1.785 2.343 2.767 5.214 2.767 8.083v3.139c0.002 1.394 1.131 2.523 2.525 2.525h2.349c1.394-0.002 2.523-1.131 2.525-2.525v-3.138c0-2.9 0.95-5.7 2.767-8.096zM10.313 17.329c-0.9-1.167-1.443-2.65-1.443-4.259 0-0.031 0-0.062 0.001-0.093l-0 0.005c0.035-3.811 3.163-6.956 6.973-7.010 1.912-0.026 3.712 0.696 5.071 2.036 1.302 1.276 2.108 3.053 2.108 5.018 0 0.008 0 0.015-0 0.023v-0.001c0 1.557-0.496 3.034-1.434 4.271-1.914 2.524-2.945 5.469-2.988 8.528h-5.31c-0.044-3.030-1.097-6.047-2.979-8.517zM13.293 28.829v-0.422l5.318 0.61v0.164c0 0.087-0.009 0.171-0.023 0.254l-5.294-0.607zM13.293 27.36v-0.473h5.318v1.082l-5.318-0.61zM14.778 30.666c-0.557-0-1.042-0.307-1.296-0.761l-0.004-0.008 4.48 0.513c-0.232 0.16-0.52 0.255-0.83 0.255-0.001 0-0.001 0-0.002 0h-2.349z"></path>
<path d="M10.802 13.83c-0.037-0.235-0.058-0.507-0.058-0.783 0-0.017 0-0.034 0-0.051l-0 0.003c0-0.001 0-0.003 0-0.005 0-0.287-0.233-0.52-0.52-0.52-0.286 0-0.517 0.23-0.52 0.515v0c-0.003 0.334 0.020 0.668 0.068 0.994 0.043 0.248 0.256 0.434 0.513 0.434 0.287 0 0.521-0.233 0.521-0.521 0-0.024-0.002-0.047-0.005-0.070l0 0.003zM13.864 21.734c0.287-0 0.52-0.233 0.52-0.521 0-0.058-0.009-0.114-0.027-0.166l0.001 0.004c-0.62-1.857-1.488-3.468-2.584-4.895l0.029 0.039c-0.172-0.223-0.333-0.475-0.473-0.74l-0.014-0.029c-0.088-0.168-0.262-0.281-0.462-0.281-0.287 0-0.52 0.233-0.52 0.52 0 0.087 0.022 0.17 0.060 0.242l-0.001-0.003c0.184 0.352 0.377 0.653 0.594 0.936l-0.011-0.015c1 1.301 1.813 2.81 2.362 4.442l0.032 0.109c0.072 0.219 0.275 0.358 0.494 0.358zM21.414 14.829c-0.061-0.027-0.131-0.043-0.206-0.043-0.213 0-0.396 0.128-0.476 0.311l-0.001 0.003c-0.181 0.414-0.393 0.771-0.643 1.098l0.009-0.012c-0.062 0.084-0.099 0.19-0.099 0.305 0 0.288 0.233 0.521 0.521 0.521 0.165 0 0.311-0.076 0.407-0.195l0.001-0.001c0.289-0.377 0.543-0.805 0.745-1.262l0.016-0.040c0.027-0.061 0.042-0.131 0.042-0.206 0-0.213-0.128-0.396-0.311-0.476l-0.003-0.001zM15.947 7.844c2.869 0 5.203 2.334 5.203 5.203 0 0.163-0.007 0.327-0.022 0.489-0.001 0.014-0.002 0.031-0.002 0.047 0 0.287 0.233 0.52 0.52 0.52 0.271 0 0.493-0.207 0.518-0.471l0-0.002c0.017-0.175 0.027-0.378 0.027-0.583v-0c0-3.443-2.801-6.244-6.244-6.244-0.287 0-0.52 0.233-0.52 0.52s0.233 0.52 0.52 0.52v0z"></path>
<path d="M15.947 4.033c0.288 0 0.521-0.233 0.521-0.52v-2.913c0-0.287-0.233-0.52-0.52-0.52s-0.52 0.233-0.52 0.52v0 2.913c0 0.287 0.233 0.521 0.52 0.521zM10.683 5.061c0.092 0.157 0.259 0.26 0.451 0.26 0.287 0 0.52-0.233 0.52-0.52 0-0.096-0.026-0.185-0.071-0.263l0.001 0.002-1.456-2.523c-0.092-0.157-0.259-0.26-0.451-0.26-0.287 0-0.52 0.233-0.52 0.52 0 0.096 0.026 0.186 0.071 0.263l-0.001-0.002 1.456 2.522zM27.067 18.957l-2.523-1.456c-0.075-0.044-0.164-0.070-0.26-0.070-0.287 0-0.52 0.233-0.52 0.52 0 0.192 0.104 0.359 0.258 0.449l0.002 0.001 2.523 1.456c0.075 0.044 0.164 0.070 0.26 0.070 0.287 0 0.52-0.233 0.52-0.52 0-0.192-0.104-0.359-0.258-0.449l-0.002-0.001zM4.827 7.319l2.523 1.456c0.075 0.044 0.164 0.070 0.26 0.070 0.287 0 0.52-0.233 0.52-0.52 0-0.192-0.104-0.359-0.258-0.449l-0.002-0.001-2.523-1.456c-0.075-0.044-0.164-0.070-0.26-0.070-0.287 0-0.52 0.233-0.52 0.52 0 0.192 0.104 0.359 0.258 0.449l0.002 0.001zM28.486 12.618h-2.914c-0.287 0-0.52 0.233-0.52 0.52s0.233 0.52 0.52 0.52v0h2.914c0.287 0 0.52-0.233 0.52-0.52s-0.233-0.52-0.52-0.52v0zM6.842 13.138c0-0.287-0.233-0.52-0.52-0.52h-2.913c-0.287 0-0.52 0.233-0.52 0.52s0.233 0.52 0.52 0.52v0h2.913c0.288 0 0.52-0.233 0.52-0.521zM24.285 8.845c0.088 0 0.177-0.022 0.26-0.070l2.522-1.456c0.157-0.092 0.26-0.259 0.26-0.451 0-0.287-0.233-0.52-0.52-0.52-0.096 0-0.185 0.026-0.263 0.071l0.002-0.001-2.523 1.456c-0.157 0.091-0.261 0.259-0.261 0.451 0 0.287 0.233 0.52 0.52 0.52 0 0 0.001 0 0.001 0h-0zM7.35 17.501l-2.522 1.456c-0.157 0.092-0.26 0.259-0.26 0.451 0 0.287 0.233 0.52 0.52 0.52 0.096 0 0.185-0.026 0.263-0.071l-0.002 0.001 2.523-1.456c0.157-0.092 0.26-0.259 0.26-0.451 0-0.287-0.233-0.521-0.521-0.521-0.096 0-0.186 0.026-0.263 0.071l0.002-0.001zM20.5 5.252c0.075 0.044 0.164 0.070 0.26 0.070 0.192 0 0.359-0.104 0.449-0.258l0.001-0.002 1.456-2.523c0.044-0.075 0.070-0.164 0.070-0.26 0-0.287-0.233-0.52-0.52-0.52-0.192 0-0.359 0.104-0.449 0.258l-0.001 0.002-1.456 2.523c-0.044 0.075-0.070 0.164-0.070 0.26 0 0.191 0.103 0.359 0.258 0.449l0.002 0.001z"></path>
</symbol>
</defs>
</svg>
